<svg xmlns="http://www.w3.org/2000/svg" xmlns:xlink="http://www.w3.org/1999/xlink" width="28" height="19" version="1.1" viewBox="0 0 28 19"><title>echo 2</title><desc>Created with Sketch.</desc><defs><linearGradient id="linearGradient-1" x1="85.998%" x2="22.699%" y1="34.875%" y2="121.958%"><stop offset="0%" stop-color="#D2E3E5"/><stop offset="1%" stop-color="#CEE2E4"/><stop offset="21%" stop-color="#90CDD8"/><stop offset="41%" stop-color="#5DBCCD"/><stop offset="59%" stop-color="#35AFC5"/><stop offset="75%" stop-color="#18A5BF"/><stop offset="90%" stop-color="#069FBB"/><stop offset="100%" stop-color="#009DBA"/></linearGradient><linearGradient id="linearGradient-2" x1="44.172%" x2="77.842%" y1="-18.542%" y2="88.292%"><stop offset="0%" stop-color="#27BCD2"/><stop offset="82%" stop-color="#006F88"/></linearGradient><linearGradient id="linearGradient-3" x1="44.152%" x2="77.834%" y1="-18.542%" y2="88.292%"><stop offset="0%" stop-color="#27BCD2"/><stop offset="82%" stop-color="#006F88"/></linearGradient><linearGradient id="linearGradient-4" x1="85.998%" x2="22.699%" y1="34.875%" y2="122%"><stop offset="0%" stop-color="#D2E3E5"/><stop offset="1%" stop-color="#CEE2E4"/><stop offset="21%" stop-color="#90CDD8"/><stop offset="41%" stop-color="#5DBCCD"/><stop offset="59%" stop-color="#35AFC5"/><stop offset="75%" stop-color="#18A5BF"/><stop offset="90%" stop-color="#069FBB"/><stop offset="100%" stop-color="#009DBA"/></linearGradient><linearGradient id="linearGradient-5" x1="85.962%" x2="22.663%" y1="34.875%" y2="122%"><stop offset="0%" stop-color="#D2E3E5"/><stop offset="1%" stop-color="#CEE2E4"/><stop offset="21%" stop-color="#90CDD8"/><stop offset="41%" stop-color="#5DBCCD"/><stop offset="59%" stop-color="#35AFC5"/><stop offset="75%" stop-color="#18A5BF"/><stop offset="90%" stop-color="#069FBB"/><stop offset="100%" stop-color="#009DBA"/></linearGradient><linearGradient id="linearGradient-6" x1="44.136%" x2="77.842%" y1="-18.591%" y2="88.328%"><stop offset="0%" stop-color="#27BCD2"/><stop offset="82%" stop-color="#006F88"/></linearGradient><linearGradient id="linearGradient-7" x1="85.998%" x2="22.699%" y1="34.89%" y2="122.009%"><stop offset="0%" stop-color="#D2E3E5"/><stop offset="1%" stop-color="#CEE2E4"/><stop offset="21%" stop-color="#90CDD8"/><stop offset="41%" stop-color="#5DBCCD"/><stop offset="59%" stop-color="#35AFC5"/><stop offset="75%" stop-color="#18A5BF"/><stop offset="90%" stop-color="#069FBB"/><stop offset="100%" stop-color="#009DBA"/></linearGradient><linearGradient id="linearGradient-8" x1="85.993%" x2="22.671%" y1="34.89%" y2="122.009%"><stop offset="0%" stop-color="#D2E3E5"/><stop offset="1%" stop-color="#CEE2E4"/><stop offset="21%" stop-color="#90CDD8"/><stop offset="41%" stop-color="#5DBCCD"/><stop offset="59%" stop-color="#35AFC5"/><stop offset="75%" stop-color="#18A5BF"/><stop offset="90%" stop-color="#069FBB"/><stop offset="100%" stop-color="#009DBA"/></linearGradient></defs><g id="Wallet" fill="none" fill-rule="evenodd" stroke="none" stroke-width="1"><g id="All-Tokens" transform="translate(-278.000000, -539.000000)"><g id="echo-2" transform="translate(278.000000, 539.000000)"><polygon id="Path" fill="url(#linearGradient-1)" points="14.02 6.054 10.524 0 7.03 6.054"/><polygon id="Path" fill="url(#linearGradient-1)" points="3.537 0 .04 6.054 7.03 6.054"/><polygon id="Path" fill="url(#linearGradient-2)" points="17.514 0 10.524 0 14.02 6.054"/><polygon id="Path" fill="url(#linearGradient-3)" points="10.524 0 3.537 0 7.03 6.054"/><polygon id="Path" fill="url(#linearGradient-1)" points="21.01 6.054 17.514 0 14.02 6.054"/><polygon id="Path" fill="url(#linearGradient-2)" points="24.504 0 17.514 0 21.01 6.054"/><polygon id="Path" fill="url(#linearGradient-4)" points="7.03 18.16 14.02 18.16 10.524 12.106"/><polygon id="Path" fill="url(#linearGradient-4)" points=".04 18.16 7.03 18.16 3.537 12.106"/><polygon id="Path" fill="url(#linearGradient-2)" points="10.524 12.106 14.02 18.16 17.514 12.106"/><polygon id="Path" fill="url(#linearGradient-3)" points="3.537 12.106 7.03 18.16 10.524 12.106"/><polygon id="Path" fill="url(#linearGradient-4)" points="14.02 18.16 21.01 18.16 17.514 12.106"/><polygon id="Path" fill="url(#linearGradient-5)" points="24.504 12.106 21.01 18.16 28 18.16"/><polygon id="Path" fill="url(#linearGradient-2)" points="17.514 12.106 21.01 18.16 24.504 12.106"/><polygon id="Path" fill="url(#linearGradient-6)" points="7.03 6.054 10.524 12.106 14.02 6.054"/><polygon id="Path" fill="url(#linearGradient-6)" points=".04 6.054 3.537 12.106 7.03 6.054"/><polygon id="Path" fill="url(#linearGradient-7)" points="10.524 12.106 17.514 12.106 14.02 6.054"/><polygon id="Path" fill="url(#linearGradient-8)" points="7.03 6.054 3.537 12.106 10.524 12.106"/><polygon id="Path" fill="url(#linearGradient-6)" points="17.514 12.106 21.01 6.054 14.02 6.054"/><polygon id="Path" fill="url(#linearGradient-7)" points="24.504 12.106 21.01 6.054 17.514 12.106"/></g></g></g></svg>